<svg width="165" height="80" viewBox="0 0 165 80" fill="none" xmlns="http://www.w3.org/2000/svg" class="-top-sizing-description-list-image xl:-top-sizing-timeline-line-height absolute -left-[23px] w-[148px] xl:left-0 xl:w-[164px]"><g clip-path="url(#clip0_7764_189284)"><path d="M24.87 55.0193H28.6472L30.3236 52.1121H35.8196V55.0193H39.618V39.9954H33.6764L24.87 55.0193ZM35.8196 42.7964V49.2686H31.9787L35.7347 42.7964H35.8196ZM53.3899 39.9954H59.7772V55.0193H56.0849V42.9238H55.9575L52.5835 55.0193H48.8912L45.5172 42.9238H45.3899V55.0193H41.9522V39.9954H48.2546L50.2493 48.25C50.3554 48.7381 50.4615 49.1837 50.5464 49.6081C50.6313 50.0325 50.6949 50.4569 50.7586 50.8813H50.8647C50.9284 50.4569 50.992 50.0325 51.0769 49.6081C51.1618 49.1837 51.2467 48.7381 51.374 48.25L53.3899 39.9954ZM65.2095 43.9848C65.2095 44.3031 65.3156 44.5577 65.5278 44.7911C65.74 45.0246 66.0583 45.1943 66.5039 45.3641C66.9496 45.5338 67.5225 45.7036 68.2228 45.8734C69.496 46.1917 70.4933 46.5524 71.2148 46.9556C71.9363 47.3588 72.4668 47.8681 72.7851 48.4198C73.1034 48.9715 73.252 49.6506 73.252 50.4145C73.252 51.1784 72.9973 52.1758 72.4668 52.9185C71.9363 53.6612 71.2148 54.2129 70.2599 54.6373C69.305 55.0617 68.2228 55.2739 66.9708 55.2739C65.7188 55.2739 64.9549 55.1466 64.1273 54.8707C63.2997 54.5949 62.6207 54.2129 62.0902 53.7036C61.5597 53.1943 61.1777 52.5789 60.9655 51.8575L64.2546 50.563C64.4032 51.136 64.7427 51.5816 65.2307 51.9423C65.7188 52.3031 66.313 52.4728 66.992 52.4728C67.6711 52.4728 68.3289 52.3243 68.7321 52.006C69.1352 51.6877 69.3687 51.3057 69.3687 50.8177C69.3687 50.3296 69.1352 49.9476 68.6472 49.693C68.1803 49.4384 67.3952 49.1625 66.3342 48.8866C65.0822 48.5683 64.0848 48.1864 63.3421 47.7832C62.5994 47.38 62.0902 46.8919 61.7719 46.319C61.4535 45.746 61.305 45.0882 61.305 44.3243C61.305 42.9238 61.8355 41.7991 62.9177 40.9715C64 40.1439 65.4854 39.7195 67.3952 39.7195C69.305 39.7195 70.2387 40.0166 71.2148 40.5895C72.2122 41.1625 72.9124 42.0325 73.2944 43.1572L69.9841 44.4092C69.8143 43.8362 69.4748 43.3906 69.0079 43.0511C68.5199 42.7116 67.9681 42.5418 67.3527 42.5418C66.7374 42.5418 66.1644 42.6691 65.7612 42.945C65.3793 43.2208 65.1671 43.5604 65.1671 43.9848H65.2095ZM84.9867 43.8575C84.9867 44.2606 85.0928 44.5789 85.3262 44.876C85.5597 45.1731 85.9204 45.3853 86.3872 45.5975C86.8541 45.8097 87.4907 46.0219 88.2758 46.2553C89.3581 46.5736 90.2493 46.9132 90.9284 47.3376C91.6074 47.7407 92.1167 48.2076 92.4562 48.7805C92.7957 49.3323 92.9655 49.9901 92.9655 50.754C92.9655 51.5179 92.7321 52.4304 92.2228 53.1094C91.7347 53.7885 91.0557 54.3402 90.1856 54.7222C89.3156 55.1041 88.2971 55.3163 87.1299 55.3163C85.9628 55.3163 85.3475 55.189 84.5835 54.9132C83.8196 54.6585 83.1618 54.2766 82.6313 53.7885C82.1008 53.3004 81.7188 52.7275 81.4642 52.0484L84.053 50.9238C84.244 51.5392 84.626 52.0484 85.1989 52.4304C85.7719 52.8124 86.4297 53.0033 87.1724 53.0033C87.9151 53.0033 88.6578 52.8124 89.1459 52.4728C89.6339 52.1121 89.8673 51.624 89.8673 51.0086C89.8673 50.3933 89.6127 49.9264 89.1034 49.6081C88.5941 49.2898 87.7453 48.9503 86.5994 48.6108C85.5172 48.2925 84.626 47.9317 83.9257 47.5285C83.2254 47.1254 82.7162 46.6585 82.3979 46.0856C82.0795 45.5126 81.9098 44.8548 81.9098 44.0909C81.9098 42.7752 82.4191 41.7354 83.4164 40.9291C84.4138 40.1439 85.7931 39.7407 87.5331 39.7407C89.2732 39.7407 90.0795 40.0166 91.0344 40.5683C91.9894 41.1201 92.6684 41.9264 93.0716 42.9874L90.4827 44.0909C90.2493 43.4543 89.8461 42.945 89.3156 42.5842C88.7851 42.2235 88.1697 42.0325 87.4907 42.0325C86.8116 42.0325 86.0902 42.2023 85.6445 42.5206C85.1989 42.8389 84.9867 43.3057 84.9867 43.8575ZM101.857 51.6877L104.17 52.5577C103.873 53.4065 103.321 54.0643 102.557 54.5524C101.772 55.0405 100.838 55.2739 99.7559 55.2739C98.6737 55.2739 97.6764 55.0405 96.87 54.5736C96.0636 54.1068 95.427 53.449 94.9602 52.5789C94.4933 51.7089 94.2811 50.7116 94.2811 49.5232C94.2811 48.3349 94.4933 47.3588 94.939 46.51C95.3846 45.6612 96 45.0033 96.8276 44.5577C97.6339 44.0909 98.5888 43.8787 99.6923 43.8787C100.796 43.8787 101.708 44.1121 102.472 44.5577C103.236 45.0033 103.788 45.6824 104.106 46.5524L101.729 47.4437C101.517 46.998 101.241 46.6797 100.923 46.4251C100.605 46.1704 100.202 46.0856 99.7135 46.0856C98.9283 46.0856 98.313 46.3827 97.8461 46.9556C97.4005 47.5498 97.1883 48.3986 97.1883 49.5232C97.1883 50.6479 97.4217 51.4967 97.8673 52.1121C98.3342 52.7275 98.9496 53.0246 99.7772 53.0246C100.605 53.0246 100.668 52.9185 101.029 52.685C101.39 52.4516 101.666 52.1121 101.878 51.6665L101.857 51.6877ZM114.631 44.9397C115.268 45.6399 115.586 46.6585 115.586 47.9529V55.0193H112.721V48.2925C112.721 47.5922 112.552 47.0829 112.255 46.7646C111.958 46.4463 111.448 46.2553 110.769 46.2553C110.09 46.2553 109.984 46.3402 109.645 46.51C109.305 46.6797 109.029 46.9132 108.838 47.2102C108.626 47.5073 108.52 47.8468 108.52 48.2288V55.0193H105.655V39.1466H108.52V45.449H108.626C108.923 44.9609 109.347 44.5789 109.899 44.3031C110.451 44.0272 111.088 43.8999 111.851 43.8999C113.082 43.8999 114.016 44.2606 114.652 44.9609L114.631 44.9397ZM120.849 39.9105C121.167 40.2288 121.316 40.632 121.316 41.0988C121.316 41.5657 121.146 41.9476 120.849 42.2872C120.552 42.6267 120.127 42.7964 119.639 42.7964C119.151 42.7964 118.748 42.6267 118.408 42.2872C118.069 41.9476 117.942 41.5657 117.942 41.0988C117.942 40.632 118.111 40.2288 118.408 39.9105C118.706 39.5922 119.13 39.4437 119.639 39.4437C120.149 39.4437 120.53 39.6134 120.849 39.9105ZM118.196 44.1333H121.061V55.0193H118.196V44.1333ZM132.414 44.6002C131.671 44.1121 130.822 43.8787 129.867 43.8787C128.912 43.8787 128.509 44.0272 127.979 44.3031C127.448 44.5789 127.024 44.9821 126.727 45.4702H126.621V44.1333H123.756V59.0511H126.621V53.7036H126.727C127.024 54.1917 127.448 54.5736 127.979 54.8707C128.509 55.1466 129.146 55.2951 129.889 55.2951C130.631 55.2951 131.735 55.0617 132.456 54.5949C133.178 54.128 133.729 53.4702 134.154 52.6002C134.578 51.7301 134.748 50.7328 134.748 49.6081C134.748 48.4834 134.536 47.4649 134.133 46.6161C133.729 45.7673 133.156 45.0882 132.414 44.6002ZM131.48 51.3906C131.247 51.8999 130.95 52.3031 130.525 52.5789C130.101 52.8548 129.634 53.0033 129.082 53.0033C128.53 53.0033 128.212 52.8972 127.851 52.7063C127.469 52.5153 127.172 52.2394 126.96 51.8999C126.727 51.5604 126.621 51.1784 126.621 50.7752V48.3349C126.621 47.9105 126.727 47.5285 126.96 47.189C127.194 46.8495 127.491 46.5736 127.851 46.3827C128.212 46.1917 128.637 46.0856 129.082 46.0856C129.91 46.0856 130.568 46.3827 131.056 47.0193C131.544 47.6346 131.798 48.4834 131.798 49.5657C131.798 50.6479 131.713 50.8813 131.48 51.3906ZM145.719 44.9397C146.355 45.6399 146.674 46.6585 146.674 47.9529V55.0193H143.809V48.2925C143.809 47.5922 143.639 47.0829 143.342 46.7646C143.045 46.4463 142.536 46.2553 141.857 46.2553C141.178 46.2553 141.072 46.3402 140.732 46.51C140.393 46.6797 140.117 46.9132 139.926 47.2102C139.713 47.5073 139.607 47.8468 139.607 48.2288V55.0193H136.743V39.1466H139.607V45.449H139.713C140.011 44.9609 140.435 44.5789 140.987 44.3031C141.538 44.0272 142.175 43.8999 142.939 43.8999C144.17 43.8999 145.103 44.2606 145.74 44.9609L145.719 44.9397ZM157.05 44.5577C156.223 44.0909 155.225 43.8787 154.08 43.8787C152.934 43.8787 151.936 44.1121 151.109 44.5577C150.281 45.0033 149.623 45.6612 149.156 46.51C148.69 47.3588 148.477 48.3773 148.477 49.5445C148.477 50.7116 148.711 51.7089 149.156 52.5577C149.602 53.4065 150.26 54.0643 151.109 54.5524C151.936 55.0193 152.934 55.2527 154.08 55.2527C155.225 55.2527 156.202 55.0193 157.029 54.5524C157.857 54.0856 158.515 53.4277 158.981 52.5577C159.448 51.7089 159.66 50.6903 159.66 49.5445C159.66 48.3986 159.427 47.3588 158.981 46.51C158.536 45.6612 157.878 45.0033 157.05 44.5577ZM156.023 52.1121C155.556 52.7275 154.907 53.0458 154.101 53.0458C153.294 53.0458 152.615 52.7487 152.149 52.1333C151.682 51.5179 151.469 50.6691 151.469 49.5657C151.469 48.4622 151.703 47.6134 152.149 46.998C152.615 46.3827 153.252 46.0856 154.101 46.0856C154.95 46.0856 155.565 46.3827 156.032 46.998C156.499 47.6134 156.732 48.4622 156.732 49.5657C156.732 50.6691 156.49 51.4967 156.023 52.1121ZM164.414 39.1466V55.0193H161.549V39.1466H164.414Z" fill="black"></path><path d="M76.4775 24.3986C74.4615 19.6452 71.5756 15.3588 67.9045 11.6877C64.2334 8.01659 59.947 5.13065 55.1936 3.11474C50.2706 1.03516 45.0292 -0.0258484 39.618 -0.0258484C34.2069 -0.0258484 28.9867 1.03516 24.0424 3.11474C19.2891 5.13065 15.0027 8.01659 11.3316 11.6877C7.66048 15.3588 4.77454 19.6452 2.75863 24.3986C0.67905 29.3216 -0.381958 34.563 -0.381958 39.9742C-0.381958 45.3853 0.67905 50.6054 2.75863 55.5497C4.77454 60.3243 7.66048 64.5895 11.3316 68.2606C15.0027 71.9317 19.2891 74.8176 24.0424 76.8336C28.9655 78.9131 34.2069 79.9742 39.618 79.9742C45.0292 79.9742 50.2493 78.9131 55.1936 76.8336C59.9682 74.8176 64.2334 71.9317 67.9045 68.2606C71.5756 64.5895 74.4615 60.3031 76.4775 55.5497C78.557 50.6267 79.618 45.3853 79.618 39.9742C79.618 34.563 78.557 29.3429 76.4775 24.3986ZM39.618 77.5763C18.8647 77.5763 2.01592 60.7487 2.01592 39.9742C2.01592 19.1996 18.8435 2.37203 39.618 2.37203C60.3926 2.37203 77.2202 19.1996 77.2202 39.9742C77.2202 60.7487 60.3926 77.5763 39.618 77.5763Z" fill="#000000ff"></path></g><rect x="0" y="0" width="20" height="20" class="fill-color-surface-contrast opacity-100 xl:opacity-0"></rect><defs><clipPath id="clip0_7764_189284"><rect width="164.032" height="80" fill="white"></rect></clipPath></defs></svg>