<svg width="55" height="50" viewBox="0 0 55 50" fill="none" xmlns="http://www.w3.org/2000/svg">
<path d="M46.2647 0.344826H14.4317C0.358157 0.344826 0.358156 15.1724 0.358156 15.1724C0.358156 26.5517 7.73001 29.3103 10.4107 29.6552H0.0230719V40.3448C-0.312013 45.1724 3.03883 49.3103 7.73001 50H11.0809V17.5862C11.0809 10.3448 20.1281 10.6897 20.1281 10.6897H43.5841V20.3448H21.4685V30.6897H43.5841V32.4138C43.5841 39.6552 34.5368 39.3103 34.5368 39.3103H21.4685V49.6552H40.5683C54.3068 49.6552 54.3068 34.8276 54.3068 34.8276C54.3068 22.4138 46.5998 20.6897 44.5893 20.3448H54.9769V9.65517C55.312 4.82758 51.9612 0.689655 47.27 0C46.9349 0.344828 46.5998 0.344826 46.2647 0.344826Z" fill="black"/>
</svg>
